Coordinates
version=1
nRows=7
nColumns=63
inDegrees=yes

Units are S.I. units (second, meters, Newtons, ...)
If the header above contains a line with 'inDegrees', this indicates whether rotational values are in degrees (yes) or radians (no).

endheader
time	pelvis_tilt	pelvis_list	pelvis_rotation	pelvis_tx	pelvis_ty	pelvis_tz	hip_flexion_r	hip_adduction_r	hip_rotation_r	knee_angle_r	knee_angle_r_beta	ankle_angle_r	subtalar_angle_r	mtp_angle_r	hip_flexion_l	hip_adduction_l	hip_rotation_l	knee_angle_l	knee_angle_l_beta	ankle_angle_l	subtalar_angle_l	mtp_angle_l	L5_S1_Flex_Ext	L5_S1_Lat_Bending	L5_S1_axial_rotation	L4_L5_Flex_Ext	L4_L5_Lat_Bending	L4_L5_axial_rotation	L3_L4_Flex_Ext	L3_L4_Lat_Bending	L3_L4_axial_rotation	L2_L3_Flex_Ext	L2_L3_Lat_Bending	L2_L3_axial_rotation	L1_L2_Flex_Ext	L1_L2_Lat_Bending	L1_L2_axial_rotation	L1_T12_Flex_Ext	L1_T12_Lat_Bending	L1_T12_axial_rotation	Abs_r3	Abs_r2	Abs_r1	Abs_t1	Abs_t2	neck_flexion	neck_bending	neck_rotation	arm_flex_r	arm_add_r	arm_rot_r	elbow_flex_r	pro_sup_r	wrist_flex_r	wrist_dev_r	arm_flex_l	arm_add_l	arm_rot_l	elbow_flex_l	pro_sup_l	wrist_flex_l	wrist_dev_l
      2.90000000	      5.57497655	     -0.65475122	     91.23051272	      0.14090707	      0.93134103	      0.36008550	     -0.35535452	     -0.13176983	    -21.14131891	     19.86263530	      0.34666838	     39.68100203	     18.56101525	      0.00000000	      3.18870902	     -5.04020206	     -6.11896488	     26.27151914	      0.45852451	     36.74512875	      7.30546483	      0.00000000	      0.14964466	     -0.26046057	      0.86497453	      0.27790511	     -0.34641256	      0.91903543	      0.24585122	     -0.63328383	      0.91903543	      0.17102889	     -0.63328383	      0.75685271	      0.13896004	     -0.53113120	      0.70279180	      0.08550696	     -0.40345342	      0.64873089	      1.06889687	     -2.94638206	      4.81072882	      0.00000000	      0.00000000	     21.25998922	      6.69504074	    -20.27677437	     -5.71787195	    -41.00733954	    -81.55678055	    109.67900936	     89.10661741	    -12.08809848	     18.33356496	     41.17497208	    -27.49881798	    -21.21286049	    101.69262869	     88.37753800	    -18.74441248	     -4.07980560
      2.91666667	      5.44447796	     -0.53803458	     91.09072080	      0.14047953	      0.93119873	      0.35932764	     -0.52791954	     -0.30610964	    -20.96612558	     19.85932224	      0.34661056	     39.72042474	     18.51416650	      0.00000000	      2.97644814	     -4.69826397	     -5.59692280	     26.18800324	      0.45706688	     36.43057742	      6.31485888	      0.00000000	      0.15206689	     -0.25237936	      0.86133950	      0.28240342	     -0.33566455	      0.91517322	      0.24983070	     -0.61363518	      0.91517322	      0.17379725	     -0.61363518	      0.75367207	      0.14120932	     -0.51465199	      0.69983835	      0.08689102	     -0.39093563	      0.64600463	      1.08619860	     -2.85496581	      4.79051192	      0.00000000	      0.00000000	     21.00684465	      6.65900848	    -18.88309755	     -5.19971988	    -40.33820198	    -82.73498982	    110.89973302	     88.97664057	     -9.71801794	     18.64011470	     40.74075017	    -26.97769254	    -22.57224386	    102.08407912	     88.31579143	    -17.49550227	     -7.14772155
      2.93333333	      5.43301319	     -0.35598161	     91.09881579	      0.14026484	      0.93092898	      0.35857863	     -0.72935997	     -0.34636940	    -20.94358742	     19.96063673	      0.34837883	     39.76306130	     18.47993064	      0.00000000	      2.80855147	     -4.68635977	     -5.59714111	     26.38616259	      0.46052541	     36.37628543	      6.22716446	      0.00000000	      0.13629716	     -0.25071907	      0.85625622	      0.25311746	     -0.33345636	      0.90977223	      0.22392260	     -0.60959834	      0.90977223	      0.15577402	     -0.60959834	      0.74922419	      0.12656554	     -0.51126632	      0.69570818	      0.07788020	     -0.38836383	      0.64219216	      0.97355698	     -2.83618422	      4.76224020	      0.00000000	      0.00000000	     20.70070125	      6.69942655	    -18.80164258	     -4.92203180	    -39.76901745	    -83.53192990	    111.71020515	     88.82337547	     -9.82162396	     18.40190563	     40.40697188	    -27.00889671	    -22.96169950	    103.06612406	     88.35204069	    -17.52550965	     -7.52558154
      2.95000000	      5.36032138	     -0.24258299	     90.99779928	      0.13966773	      0.93072384	      0.35746215	     -0.88282362	     -0.48553146	    -20.83940786	     20.03818968	      0.34973239	     39.73767163	     18.41899330	      0.00000000	      2.65315431	     -4.36036214	     -4.84640174	     26.50987235	      0.46268456	     35.98336965	      4.66025797	      0.00000000	      0.14500481	     -0.23597347	      0.82662183	      0.26928844	     -0.31384471	      0.87828569	      0.23822841	     -0.57374589	      0.87828569	      0.16572600	     -0.57374589	      0.72329410	      0.13465147	     -0.48119709	      0.67163024	      0.08285575	     -0.36552290	      0.61996637	      1.03575488	     -2.66937906	      4.59742263	      0.00000000	      0.00000000	     20.22286384	      6.46940784	    -17.24991346	     -4.31690444	    -39.51154372	    -83.36015221	    112.13662352	     88.60156233	    -10.22748506	     16.42930888	     39.39503801	    -27.19579950	    -23.72154743	    103.67183214	     88.37609037	    -17.60329962	     -9.85806079
      2.96666667	      5.32960594	     -0.07403788	     91.01140466	      0.13931409	      0.93044748	      0.35662434	     -1.05542632	     -0.56342810	    -20.86215102	     20.18176656	      0.35223828	     39.77608022	     18.37321545	      0.00000000	      2.52563310	     -4.31841929	     -4.82578109	     26.76309493	      0.46710412	     36.10535027	      4.45701334	      0.00000000	      0.12639548	     -0.23816999	      0.84906859	      0.23472904	     -0.31676608	      0.90213538	      0.20765513	     -0.57908651	      0.90213538	      0.14445739	     -0.57908651	      0.74293502	      0.11737084	     -0.48567624	      0.68986823	      0.07222238	     -0.36892531	      0.63680144	      0.90283026	     -2.69422655	      4.72226478	      0.00000000	      0.00000000	     19.95936577	      6.50945935	    -17.09972493	     -4.30810215	    -39.23193225	    -83.78898443	    112.53539842	     88.58861933	    -10.48818915	     16.27898027	     38.71907360	    -27.49926349	    -23.66910108	    104.57519370	     88.46137515	    -17.65556566	    -10.09773281
      2.98333333	      5.28356498	     -0.05135731	     90.62556335	      0.13898614	      0.92999623	      0.35587294	     -0.91781019	     -0.75293418	    -20.47292589	     20.55383767	      0.35873214	     39.87239225	     18.36069573	      0.00000000	      2.50920972	     -4.01687893	     -4.31626481	     26.95277100	      0.47041460	     36.15549481	      2.78978738	      0.00000000	      0.12995004	     -0.22905507	      0.88834349	      0.24133022	     -0.30464325	      0.94386496	      0.21349492	     -0.55692450	      0.94386496	      0.14851990	     -0.55692450	      0.77730055	      0.12067161	     -0.46708910	      0.72177909	      0.07425345	     -0.35480631	      0.66625762	      0.92822016	     -2.59111680	      4.94069999	      0.00000000	      0.00000000	     19.65606387	      6.71715262	    -15.60322365	     -4.43640120	    -39.43939975	    -82.91031327	    112.77245305	     88.73011716	    -13.09685812	     16.22740509	     37.32160269	    -28.32963100	    -23.55999693	    105.91064586	     88.52712152	    -19.75564600	     -9.66882477
      3.00000000	      5.24206751	     -0.02054431	     90.52101249	      0.13865159	      0.92958424	      0.35513255	     -0.88423896	     -0.88605635	    -20.37863350	     20.78604000	      0.36278484	     39.96121894	     18.38121691	      0.00000000	      2.60920757	     -3.94443001	     -4.34048851	     27.29751793	      0.47643157	     36.60774215	      2.54336324	      0.00000000	      0.12091340	     -0.23501024	      0.93101446	      0.22454827	     -0.31256362	      0.98920286	      0.19864862	     -0.57140389	      0.98920286	      0.13819192	     -0.57140389	      0.81463765	      0.11228018	     -0.47923288	      0.75644925	      0.06908991	     -0.36403086	      0.69826085	      0.86367230	     -2.65848280	      5.17802312	      0.00000000	      0.00000000	     19.65009894	      6.82143438	    -15.44902722	     -5.09365686	    -39.42951187	    -82.84174335	    112.86821207	     88.94555461	    -13.26945317	     16.61157970	     36.21484943	    -28.95317220	    -23.30951505	    106.90201053	     88.58895615	    -20.07230595	     -9.57925823
